<?xml version="1.0" standalone="no"?>
<!DOCTYPE svg PUBLIC "-//W3C//DTD SVG 20010904//EN"
 "http://www.w3.org/TR/2001/REC-SVG-20010904/DTD/svg10.dtd">
<svg version="1.0" xmlns="http://www.w3.org/2000/svg"
 width="256.000000pt" height="256.000000pt" viewBox="0 0 256.000000 256.000000"
 preserveAspectRatio="xMidYMid meet">
<metadata>
Created by potrace 1.14, written by Peter Selinger 2001-2017
</metadata>
<g transform="translate(0.000000,256.000000) scale(0.100000,-0.100000)"
fill="#000000" stroke="none">
<path d="M1240 2378 c-218 -127 -254 -147 -322 -187 -18 -10 -94 -53 -168 -96
-74 -43 -146 -85 -160 -92 -14 -8 -47 -28 -75 -44 -27 -17 -58 -33 -67 -36
-10 -3 -18 -9 -18 -14 0 -5 -6 -9 -14 -9 -8 0 -21 -6 -28 -12 -7 -7 -31 -23
-53 -35 -95 -51 -120 -66 -127 -77 -4 -6 -8 -7 -8 -3 0 5 -13 -1 -29 -12 -16
-12 -34 -21 -40 -21 -6 0 -17 -10 -26 -23 -13 -20 -15 -91 -14 -519 l0 -496
30 -13 c21 -8 27 -15 20 -22 -6 -6 -11 -27 -11 -46 0 -35 3 -37 128 -111 70
-41 134 -78 143 -82 9 -3 41 -22 72 -42 31 -20 61 -36 67 -36 5 0 10 -5 10
-12 0 -6 3 -8 7 -5 3 4 13 1 22 -6 14 -12 152 -94 266 -157 22 -12 76 -44 121
-71 45 -27 89 -49 99 -49 20 0 148 68 153 82 2 4 8 8 14 8 5 0 53 25 106 56
53 31 126 72 162 92 36 19 76 44 89 54 13 10 30 18 37 18 8 0 14 3 14 8 0 4
19 16 43 27 23 11 44 22 47 26 3 3 30 19 60 36 30 16 80 45 110 63 30 18 80
47 110 63 30 17 57 33 60 36 3 4 24 15 47 26 24 11 43 23 43 28 0 4 4 7 9 7 5
0 74 37 153 83 l143 83 3 40 3 39 -88 52 c-48 28 -104 60 -123 70 -19 11 -183
107 -364 212 -182 106 -342 195 -358 198 -23 4 -26 8 -18 24 6 11 10 209 10
504 l0 487 -22 19 c-13 10 -27 18 -33 18 -5 0 -111 -59 -235 -131z"/>
</g>
</svg>
